<?xml version="1.0" ?><svg viewBox="0 0 64 64" xmlns="http://www.w3.org/2000/svg"><defs><style>.cls-1{fill:#cbdff5;}.cls-2{fill:#52ffaa;}.cls-3{fill:#f3f9ff;}.cls-4{fill:#4f5e83;}.cls-5{fill:#1b212d;}</style></defs><g id="Dragonfly"><path class="cls-1" d="M23.79,37.21,4.62,56.38a2.12,2.12,0,0,0,3,3L26.79,40.21Z" id="path8510-6"/><path class="cls-2" d="M39.52,19.12,24.83,33.81a3.79,3.79,0,1,0,5.36,5.36L44.88,24.48Z" id="rect8503-3"/><path class="cls-3" d="M50.45,50.29C48.26,48.11,33.85,30.15,36,28S56.18,40.2,58.36,42.38a5.59,5.59,0,0,1-7.91,7.91Z" id="path8530-8"/><path class="cls-3" d="M36,28c-3,.8.52,23.56,1.32,26.54a5.59,5.59,0,1,0,10.81-2.89c-.26-1-1.35-4-2.77-7.44Z" id="path8533-0"/><path class="cls-3" d="M13.71,13.55C15.89,15.74,33.85,30.15,36,28S23.8,7.82,21.62,5.64a5.59,5.59,0,0,0-7.91,7.91Z" id="path8544-2"/><path class="cls-3" d="M36,28c-.8,3-23.56-.52-26.54-1.32a5.59,5.59,0,1,1,2.89-10.81c1,.26,4,1.35,7.44,2.77Z" id="path8546-1"/><circle class="cls-4" cx="43.86" cy="20.14" id="path8501-9" r="5.74"/><path class="cls-5" d="M47.78,32.72c-2.39-1.71-4.3-3-5.85-3.87l2-2a6.74,6.74,0,1,0-6.77-6.77l-2,2c-.91-1.55-2.16-3.46-3.87-5.85a130.7,130.7,0,0,0-9-11.29A6.59,6.59,0,0,0,13,14.26c.26.26.7.65,1.26,1.14-.7-.25-1.27-.44-1.62-.53A6.59,6.59,0,0,0,9.23,27.61a131,131,0,0,0,14.25,2.11c1.38.14,2.61.23,3.72.3l-3.08,3.09a4.71,4.71,0,0,0-1.4,3.38c0,.12,0,.23,0,.35L3.92,55.67a3.11,3.11,0,0,0,0,4.41,3.08,3.08,0,0,0,2.2.92,3.12,3.12,0,0,0,2.21-.92l7.14-7.14h0L27.16,41.25c.12,0,.23,0,.35,0a4.71,4.71,0,0,0,3.38-1.4L34,36.8c.07,1.11.17,2.34.3,3.72a131,131,0,0,0,2.11,14.25,6.59,6.59,0,0,0,12.74-3.41c-.09-.35-.28-.92-.53-1.62.49.56.88,1,1.14,1.26a6.59,6.59,0,1,0,9.33-9.32A130.7,130.7,0,0,0,47.78,32.72ZM40.51,16.79a4.74,4.74,0,1,1,0,6.7A4.74,4.74,0,0,1,40.51,16.79Zm-3,5.71a6.65,6.65,0,0,0,4,3.95l-1.4,1.39a10.23,10.23,0,0,0-2.89-1.05,10.23,10.23,0,0,0-1.05-2.89ZM9.75,25.68a4.6,4.6,0,0,1,2.38-8.88C13,17,15.74,18,19.28,19.47c1.58,1.22,3.3,2.52,5,3.74a60.16,60.16,0,0,0,7.83,5C26.29,28.35,13.28,26.63,9.75,25.68Zm-2.83,33a1.12,1.12,0,0,1-1.59-1.59l3-3,1.58,1.58Zm4.39-4.39L9.72,52.69l2-2,1.59,1.59Zm3.45-3.46-1.58-1.58,2-2.05,1.59,1.59Zm3.46-3.46-1.58-1.58,2-2,1.58,1.58Zm3.46-3.45-1.59-1.59L23.43,39A4.33,4.33,0,0,0,25,40.57Zm12.18-9.82-4.38,4.37a2.84,2.84,0,0,1-3.94,0,2.78,2.78,0,0,1,0-3.94l4.37-4.38h.91A22.66,22.66,0,0,0,34,30,24.94,24.94,0,0,0,33.86,34.09ZM14.41,12.84a4.6,4.6,0,0,1,0-6.49,4.6,4.6,0,0,1,6.5,0c5.88,5.88,13.24,18,13.31,18.07a6.86,6.86,0,0,1,1.05,2.79C32,27.21,16.93,15.36,14.41,12.84ZM46.74,55.36A4.62,4.62,0,0,1,44,57.5a4.6,4.6,0,0,1-5.63-3.25c-1-3.69-2.67-16.64-2.49-22.37a60.16,60.16,0,0,0,5,7.83c1.22,1.71,2.52,3.43,3.74,5C46,48.26,47,51,47.2,51.87A4.62,4.62,0,0,1,46.74,55.36Zm10.91-5.77a4.59,4.59,0,0,1-6.49,0c-2.71-2.71-14.49-17.91-14.37-20.86,3.1,0,18,11.45,20.86,14.36a4.59,4.59,0,0,1,0,6.5Z"/></g></svg>